<?xml version="1.0" encoding="utf-8"?>
<!-- Generator: Adobe Illustrator 19.2.0, SVG Export Plug-In . SVG Version: 6.00 Build 0)  -->
<svg version="1.1" id="Layer_57" xmlns="http://www.w3.org/2000/svg" xmlns:xlink="http://www.w3.org/1999/xlink" x="0px" y="0px"
	 viewBox="0 0 100 100" style="enable-background:new 0 0 100 100;" xml:space="preserve">
<path d="M68.3,99H31c-1.3,0-1.7-0.9-1-1.9l4.5-6.8c0.7-1,2.3-1.9,3.5-1.9h9V74.8c-12-0.1-11.8-5-12.2-15c-0.4-7.4,5.8-29.6,8-31.8
	c0.8-0.8,2.6-1.3,4.1-1.6V15.9c-0.9-0.5-1.5-1.4-1.5-2.5V3.8c0-1.6,1.3-2.8,2.8-2.8H51c1.6,0,2.8,1.3,2.8,2.8v9.5
	c0,1.1-0.6,2-1.5,2.5v10.6c1.5,0.3,3.3,0.7,4.1,1.5c2.2,2.2,8.4,24.4,8.1,31.8c-0.5,10-0.2,14.9-12.2,15v13.5h9
	c1.3,0,2.8,0.9,3.5,1.9l4.5,6.8C70.1,98.1,69.6,99,68.3,99z"/>
</svg>
