<?xml version="1.0" encoding="utf-8"?>
<!-- Generator: Adobe Illustrator 19.2.0, SVG Export Plug-In . SVG Version: 6.00 Build 0)  -->
<svg version="1.1" id="Layer_1" xmlns="http://www.w3.org/2000/svg" xmlns:xlink="http://www.w3.org/1999/xlink" x="0px" y="0px" viewBox="0 0 50 50" enable-background="new 0 0 50 50" xml:space="preserve">
<g>
	<path fill="#231F20" d="M12.7,33c-0.2,0-0.5-0.1-0.7-0.4l0-0.1l0-0.1c-0.4-1.2-1.4-3.4-2.1-4.9c-0.1-0.3-0.2-0.5-0.3-0.7l-2.6-5.5 c-0.3-0.6-0.5-1.1-0.8-1.7c-0.1-0.1-0.1-0.3-0.2-0.4c-0.1,1-0.1,1.9-0.2,2.9c-0.1,1.9-0.2,4.3-0.2,6.7c0,2,0.1,2,0.8,2.1L7.6,31 l0.1,0.1c0.3,0.3,0.4,0.7,0.3,1c-0.1,0.3-0.2,0.6-0.5,0.7l-0.1,0.1l-0.1,0c-0.9-0.1-2-0.1-3.1-0.1c-0.9,0-1.9,0-2.9,0.1l-0.2,0 l-0.2-0.1c-0.3-0.2-0.4-0.6-0.4-0.9c0-0.3,0.1-0.6,0.3-0.7L1,31l0.8-0.1c1-0.1,1.1-0.2,1.3-1.8c0.2-1.8,0.3-3.4,0.5-6.2 c0.2-2.5,0.3-4.9,0.3-6.3c0-1.6,0-1.7-1.4-1.9l-0.7-0.1l-0.1-0.2c-0.2-0.2-0.3-0.6-0.2-0.9c0.1-0.3,0.2-0.6,0.5-0.7l0.1-0.1l0.2,0 c0.9,0.1,1.5,0.1,2.2,0.1c0.7,0,1.4,0,2.3-0.1l0.7-0.1l-0.1,0.7c-0.1,1.1,0.8,3,1.4,4.4l3.2,6.6l0.3,0.6c0.4,0.8,0.8,1.6,1.2,2.4 c0.5-1,1-2,1.5-2.9l0.2-0.4l2.7-5.4l0.3-0.6c1.1-2.2,1.8-3.6,1.8-4.7l0-0.6l0.6,0.1c0.9,0.1,1.5,0.1,2.1,0.1c0.7,0,1.7,0,2.5-0.1 l0.2,0l0.2,0.1c0.2,0.2,0.4,0.4,0.4,0.8c0,0.2,0,0.6-0.3,0.8l-0.1,0.1l-0.8,0.1c-1.3,0.1-1.5,0.3-1.5,2.1c0,0.7,0,1.4,0,2.3 c0,3.1,0.1,6.9,0.3,10.1l0,0.2c0.1,1.4,0.1,1.5,0.9,1.6l1.1,0.1l0.1,0.1c0.2,0.2,0.3,0.5,0.3,0.9c0,0.3-0.2,0.6-0.4,0.7l-0.1,0.1 l-0.2,0c-1.1-0.1-2.3-0.1-3.3-0.1c-1.1,0-2.3,0-3.4,0.1l-0.2,0l-0.2-0.1c-0.2-0.2-0.4-0.4-0.4-0.8c0-0.3,0.1-0.6,0.3-0.8l0.1-0.1 l1-0.1C20,30.8,20,30.8,20,29L20,19.4c-0.3,0.6-0.6,1.3-0.8,1.7l-2.5,5c-1.4,2.6-2.6,5.2-3.1,6.4l0,0.1l0,0.1 C13.3,32.9,13,33,12.7,33"/>
	<path fill="#231F20" d="M8.1,12l-1.4,0.1c-0.9,0.1-1.6,0.1-2.3,0.1c-0.7,0-1.3,0-2.2-0.1l-0.3,0l-0.3,0.1c-0.4,0.2-0.7,0.6-0.8,1.1 c-0.1,0.5,0,1,0.3,1.4l0.3,0.3l0.4,0.1l0.5,0.1c0.6,0.1,0.8,0.2,0.9,0.2c0,0.1,0.1,0.3,0.1,1.1c-0.1,1.4-0.2,3.8-0.3,6.3 c-0.2,2.8-0.3,4.4-0.5,6.2c-0.1,0.9-0.2,1.1-0.2,1.2c-0.1,0-0.3,0.1-0.6,0.1l-0.6,0.1l-0.3,0l-0.3,0.2C0.2,30.9,0,31.3,0,31.8 c0,0.5,0.2,1,0.6,1.3l0.3,0.3l0.4,0c0.9-0.1,1.9-0.1,2.8-0.1c1.1,0,2.2,0,3.1,0.1l0.3,0l0.2-0.1c0.4-0.2,0.8-0.6,0.8-1.1 c0.1-0.6-0.1-1.1-0.5-1.5l-0.3-0.2l-0.4,0l-1.1-0.1c-0.1,0-0.1,0-0.1,0c-0.1-0.2-0.1-0.7-0.1-1.5c0-2.3,0.1-4.8,0.2-6.6 c0-0.2,0-0.3,0-0.5l2.5,5.4c0.1,0.2,0.2,0.5,0.3,0.7c0.7,1.4,1.7,3.6,2.1,4.8l0,0.2l0.1,0.1c0.3,0.5,0.8,0.6,1.2,0.6 c0.5,0,1-0.2,1.2-0.6l0.1-0.1l0-0.1c0.5-1.2,1.7-3.8,3-6.4l2.3-4.6l0.1,7.2c0,0.5,0,1,0,1.2c-0.1,0-0.2,0-0.3,0.1l-0.8,0.1l-0.4,0 l-0.3,0.3c-0.3,0.3-0.5,0.8-0.4,1.3c0,0.5,0.3,0.9,0.6,1.2l0.3,0.2l0.4,0c1.1-0.1,2.3-0.1,3.4-0.1c1,0,2.2,0,3.3,0.1l0.3,0l0.3-0.2 c0.4-0.2,0.7-0.6,0.7-1.1c0.1-0.5-0.1-1-0.4-1.4l-0.3-0.3l-0.4,0l-0.9-0.1c-0.1,0-0.2,0-0.3,0c-0.1-0.2-0.1-0.6-0.1-1l0-0.2 c-0.2-3.2-0.2-7-0.3-10c0-0.8,0-1.6,0-2.3c0-1,0.1-1.3,0.1-1.4c0,0,0.2-0.1,0.8-0.2l0.6-0.1l0.3,0l0.3-0.2c0.4-0.3,0.6-0.8,0.5-1.3 c0-0.5-0.3-1-0.6-1.2l-0.3-0.2l-0.4,0c-0.8,0.1-1.7,0.1-2.5,0.1c-0.5,0-1.1,0-2-0.1L19.5,12l-0.1,1.2c0,1-0.7,2.3-1.8,4.4l-0.3,0.6 l-2.7,5.4l-0.2,0.4c-0.3,0.6-0.6,1.3-1,2c-0.2-0.5-0.5-0.9-0.7-1.4l-0.3-0.6l-3.2-6.6c-1-2-1.4-3.4-1.4-4.1L8.1,12z M25.2,13.3 c0.2,0.1,0.2,0.6,0,0.7l-0.6,0.1c-1.8,0.2-2,0.7-2,2.7c0.1,3,0.1,8.3,0.3,12.4c0.1,1.4,0.1,2.2,1.4,2.3l0.9,0.1 c0.2,0.2,0.1,0.6-0.1,0.7c-1.2-0.1-2.3-0.1-3.4-0.1c-1,0-2.3,0-3.4,0.1c-0.2-0.1-0.2-0.5-0.1-0.7l0.8-0.1c1.4-0.1,1.4-0.6,1.4-2.4 l-0.1-11.9h-0.1c-0.2, 0.3-1.3,2.6-1.8,3.7l-2.5,5c-1.3,2.5-2.6,5.2-3.1,6.5c-0.1,0.1-0.2,0.1-0.3,0.1c-0.1,0-0.2,0-0.3-0.1 c-0.5-1.5-1.8-4.3-2.5-5.7l-2.6-5.5c-0.6-1.3-1.2-2.8-1.8-4.1H5.5c-0.1,1.8-0.2,3.4-0.3,5.1C5.1,23.8,5,26.4,5,28.8 c0,2.1,0.2,2.6,1.3,2.6l1.1,0.1c0.2,0.2,0.2,0.6,0,0.7c-1-0.1-2.1-0.1-3.2-0.1c-0.9,0-1.9,0-2.9,0.1c-0.2-0.1-0.2-0.6-0.1-0.7 l0.6-0.1c1.2-0.2,1.6-0.3,1.8-2.3c0.2-1.9,0.3-3.4,0.5-6.3c0.1-2.4,0.3-4.8,0.3-6.3c0.1-1.8-0.2-2.2-1.9-2.4L2.1,14 c-0.1-0.2-0.1-0.6,0.1-0.7c0.9,0.1,1.5,0.1,2.2,0.1c0.7,0,1.4,0,2.4-0.1c-0.1,1.1,0.6,2.9,1.5,4.7l3.2,6.6c0.7,1.3,1.3,2.6,2,3.9 h0.1c0.8-1.3,1.5-2.8,2.2-4.3l2.7-5.4c1.3-2.6,2.1-4.2,2.2-5.5c1,0.1,1.6,0.1,2.1,0.1C23.4,13.4,24.3,13.3,25.2,13.3 M12.8,32.6 c-0.1,0-0.3,0-0.4-0.2l0,0l0,0c-0.4-1.3-1.5-3.5-2.2-4.9c-0.1-0.3-0.2-0.5-0.3-0.7l-2.6-5.5c-0.3-0.6-0.5-1.1-0.8-1.7 c-0.3-0.7-0.6-1.3-0.9-2c-0.1,1.6-0.2,3.1-0.3,4.6c-0.1,1.9-0.2,4.3-0.2,6.7c0,2.2,0.2,2.4,1.1,2.5l1.1,0.1l0,0 c0.2,0.1,0.2,0.4,0.2,0.6c0,0.2-0.1,0.3-0.2,0.4l0,0l0,0c-0.9-0.1-2-0.1-3.1-0.1c-0.9,0-2,0-2.9,0.1l-0.1,0l0,0 c-0.1-0.1-0.2-0.3-0.2-0.5c0-0.2,0.1-0.3,0.2-0.4l0,0l0.7-0.1c1.1-0.2,1.5-0.3,1.6-2.2c0.2-1.8,0.3-3.4,0.5-6.3 c0.2-2.5,0.3-4.9,0.3-6.3c0.1-1.7-0.1-2.1-1.8-2.3l-0.5-0.1l0,0c-0.1-0.1-0.1-0.3-0.1-0.5c0-0.2,0.1-0.3,0.3-0.4l0,0l0,0 c0.9,0.1,1.6,0.1,2.2,0.1c0.7,0,1.4,0,2.3-0.1l0.2,0l0,0.2c-0.1,1.2,0.8,3.2,1.5,4.6l3.2,6.6l0.3,0.6c0.5,1.1,1,2.1,1.6,3.1 c0.7-1.2,1.3-2.4,1.9-3.7l2.9-5.9l0.3-0.6c1.1-2.2,1.8-3.7,1.9-4.8l0-0.1l0.1,0c1,0.1,1.6,0.1,2.1,0.1c0.8,0,1.7,0,2.5-0.1l0,0l0,0 c0.2,0.1,0.2,0.4,0.2,0.5c0,0.1,0,0.4-0.2,0.5l0,0l-0.6,0.1c-1.7,0.2-1.9,0.6-1.9,2.6c0,0.7,0,1.4,0,2.3c0,3.1,0.1,6.9,0.3,10.1 l0,0.2c0.1,1.3,0.1,1.9,1.3,2l1,0.1l0,0c0.1,0.1,0.2,0.4,0.1,0.5c0,0.2-0.1,0.3-0.2,0.4l0,0l0,0c-1.1-0.1-2.3-0.1-3.4-0.1 c-1.1,0-2.3,0-3.4,0.1l0,0l0,0c-0.1-0.1-0.2-0.3-0.2-0.4c0-0.2,0-0.4,0.2-0.5l0,0l0.9-0.1c1.3-0.1,1.3-0.5,1.3-2.3l-0.1-11.4 c-0.2,0.4-0.5,0.9-0.7,1.5c-0.3,0.7-0.7,1.3-0.9,1.8l-2.5,5c-1.4,2.7-2.6,5.3-3.1,6.5l0,0l0,0C13.1,32.5,13,32.6,12.8,32.6"/>
	<path fill="#FFFFFF" d="M7.2,13l-0.3,0c-0.9,0.1-1.7,0.1-2.3,0.1c-0.7,0-1.3,0-2.2-0.1l-0.1,0l-0.1,0c-0.2,0.1-0.3,0.3-0.3,0.5 c0,0.2,0,0.5,0.1,0.7L2,14.3l0.1,0l0.5,0.1c1.5,0.2,1.7,0.4,1.7,2.2c-0.1,1.4-0.2,3.8-0.3,6.3c-0.2,2.8-0.3,4.4-0.5,6.3 C3.3,31,2.9,31,1.9,31.2l-0.6,0.1l-0.1,0l-0.1,0.1c-0.1,0.1-0.2,0.3-0.2,0.5c0,0.2,0.1,0.5,0.3,0.6l0.1,0.1l0.1,0 c0.9-0.1,2-0.1,2.9-0.1c1.1,0,2.2,0,3.1,0.1l0.1,0l0.1,0c0.2-0.1,0.3-0.2,0.3-0.5c0-0.3,0-0.6-0.2-0.7l-0.1-0.1l-0.1,0l-1.1-0.1 c-0.8-0.1-1-0.2-1-2.4c0-2.3,0.1-4.8,0.2-6.7c0.1-1.3,0.1-2.7,0.2-4c0.2,0.5,0.4,1,0.6,1.5c0.2,0.6,0.5,1.2,0.8,1.7l2.6,5.5 c0.1,0.2,0.2,0.5,0.3,0.7c0.7,1.5,1.7,3.7,2.1,4.9l0,0l0,0c0.1,0.2,0.4,0.2,0.5,0.2c0.2,0,0.4-0.1,0.5-0.2l0,0l0,0 c0.5-1.2,1.7-3.8,3.1-6.5l2.5-5c0.2-0.5,0.6-1.2,0.9-1.8c0.2-0.3,0.3-0.7,0.5-1L20.4,29c0,1.8,0,2-1.1,2.1l-0.8,0.1l-0.1,0 l-0.1,0.1c-0.1,0.1-0.2,0.4-0.2,0.6c0,0.2,0.1,0.4,0.3,0.5l0.1,0.1l0.1,0c1.1-0.1,2.4-0.1,3.4-0.1c1,0,2.2,0,3.3,0.1l0.1,0l0.1,0 c0.2-0.1,0.3-0.3,0.3-0.5c0-0.3,0-0.5-0.2-0.7l-0.1-0.1l-0.1,0l-0.9-0.1c-1-0.1-1-0.4-1.1-1.8l0-0.2c-0.2-3.2-0.2-7-0.3-10.1 c0-0.8,0-1.6,0-2.3c0-2,0.2-2.3,1.7-2.4l0.6-0.1l0.1,0l0.1-0.1c0.2-0.2,0.2-0.5,0.2-0.6c0-0.2,0-0.4-0.3-0.6L25.4,13l-0.1,0 c-0.8,0.1-1.8,0.1-2.5,0.1c-0.6,0-1.2,0-2.1-0.1l-0.3,0l0,0.3c0,1.1-0.8,2.6-1.8,4.8l-0.3,0.6l-2.7,5.4l-0.2,0.4 c-0.6,1.1-1.1,2.3-1.7,3.4c-0.5-0.9-1-1.9-1.5-2.9l-0.3-0.6l-3.2-6.6c-0.7-1.4-1.6-3.4-1.5-4.5L7.2,13z M25.3,13.3 c0.2,0.1,0.2,0.6,0,0.7l-0.6,0.1c-1.8,0.2-2,0.7-2,2.7c0.1,3,0.1,8.3,0.3,12.4c0.1,1.4,0.1,2.2,1.4,2.3l0.9,0.1 c0.2,0.2,0.1,0.6-0.1,0.7c-1.2-0.1-2.3-0.1-3.4-0.1c-1,0-2.3,0-3.4,0.1c-0.2-0.1-0.2-0.5-0.1-0.7l0.8-0.1c1.4-0.1,1.4-0.6,1.4-2.4 l-0.1-11.9h-0.1c-0.2,0.3-1.3,2.6-1.8,3.7l-2.5,5c-1.3,2.5-2.6,5.2-3.1,6.5c-0.1,0.1-0.2,0.1-0.3,0.1c-0.1,0-0.2,0-0.3-0.1 C12,30.8,10.7,28,10,26.6l-2.6-5.5c-0.6-1.3-1.2-2.8-1.8-4.1H5.6c-0.1,1.8-0.2,3.4-0.3,5.1c-0.1,1.7-0.2,4.3-0.2,6.7 c0,2.1,0.2,2.6,1.3,2.6l1.1,0.1c0.2,0.2,0.2,0.6,0,0.7c-1-0.1-2.1-0.1-3.2-0.1c-0.9,0-1.9,0-2.9,0.1c-0.2-0.1-0.2-0.6-0.1-0.7 l0.6-0.1c1.2-0.2,1.6-0.3,1.8-2.3c0.2-1.9,0.3-3.4,0.5-6.3c0.1-2.4,0.3-4.8,0.3-6.3c0.1-1.8-0.2-2.2-1.9-2.4L2.1,14 C2,13.8,2,13.4,2.2,13.3c0.9,0.1,1.5,0.1,2.2,0.1c0.7,0,1.4,0,2.4-0.1c-0.1,1.1, 0.6,2.9,1.5,4.7l3.2,6.6c0.7,1.3,1.3,2.6,2,3.9h0.1 c0.8-1.3,1.5-2.8,2.2-4.3l2.7-5.4c1.3-2.6,2.1-4.2,2.2-5.5c1,0.1,1.6,0.1,2.1,0.1C23.5,13.4,24.4,13.3,25.3,13.3"/>
</g>
<g>
	<path fill="#231F20" d="M26.5,38.4c-1.6,0-1.8-0.8-1.8-1.2c0-0.8,0.6-1.9,1.6-1.9c0.4,0,0.8,0.1,1.2,0.2c0.4,0.1,0.7,0.2,1,0.2 c0.2,0,0.4-0.1,0.6-0.4c0.5-1,0.7-4.2,0.7-6.9V17.7c0-3-0.2-3-1.4-3.1l-0.9-0.1l-0.1-0.1c-0.2-0.2-0.4-0.5-0.4-0.8 c0-0.4,0.2-0.7,0.5-0.8l0.1-0.1l0.1,0c1.7,0.1,2.7,0.1,3.8,0.1c1.1,0,2,0,3.2-0.1l0.1,0l0.1,0.1c0.3,0.1,0.4,0.5,0.5,0.8 c0,0.4-0.1,0.7-0.4,0.8l-0.1,0.1l-0.6,0.1c-1.2,0.2-1.2,0.2-1.2,3.1v10.6c0,2.1-0.1,4.3-0.7,5.7C31.5,36.7,29.2,38.4,26.5,38.4"/>
	<path fill="#231F20" d="M35.1,12.1l-0.3,0c-1.2,0.1-2.1,0.1-3.2,0.1c-1.1,0-2,0-3.8-0.1l-0.3,0l-0.3,0.1c-0.5,0.2-0.7,0.7-0.8,1.3 c0,0.6,0.2,1.1,0.6,1.4l0.2,0.2l0.3,0l0.7,0.1c0.5,0,0.7,0.1,0.7,0.1c0.1,0.2,0.2,1,0.2,2.4v10.8c0,3.1-0.3,5.9-0.6,6.6 c0,0.1-0.1,0.1-0.1,0.1h0c0,0,0,0,0,0c-0.2,0-0.5,0-0.9-0.2c-0.5-0.1-0.9-0.2-1.4-0.2c-1.3,0-2.2,1.4-2.2,2.4 c0,0.4,0.2,1.7,2.4,1.7c2.9,0,5.4-1.8,6.7-4.8c0.7-1.6,0.7-3.8,0.7-6V17.7c0-0.9,0-2.1,0.1-2.4c0.1,0,0.2-0.1,0.6-0.1l0.4-0.1 l0.3,0l0.2-0.1c0.4-0.3,0.6-0.8,0.6-1.4c0-0.6-0.3-1.1-0.8-1.3L35.1,12.1z M34.9,13.3c0.2,0.1,0.2,0.6,0.1,0.7l-0.4,0.1 c-1.7,0.2-1.7,0.6-1.7,3.6v10.6c0,2.2-0.1,4.2-0.7,5.5c-0.9,2.3-3,4.1-5.6,4.1c-0.3,0-1.2,0-1.2-0.6c0-0.5,0.4-1.3,1-1.3 c0.3,0,0.7,0.1,1.1,0.2c0.4,0.1,0.8,0.2,1.2,0.2c0.6,0,0.9-0.3,1.1-0.7c0.7-1.3,0.7-5.6,0.7-7.1V17.7c0-3.2-0.3-3.5-2-3.6L27.8,14 c-0.2-0.1-0.1-0.6,0.1-0.7c1.7,0.1,2.6,0.1,3.8,0.1C32.8,13.4,33.8,13.3,34.9,13.3 M26.6,38c-1.1,0-1.4-0.4-1.4-0.7 c0-0.5,0.4-1.5,1.2-1.5c0.3,0,0.7,0.1,1.1,0.2c0.5,0.1,0.8,0.2,1.2,0.2c0.5,0,0.8-0.2,1-0.7c0.5-1.1,0.7-4.5,0.7-7.1V17.7 c0-3.1-0.3-3.4-1.8-3.5l-0.7-0.1l0,0c-0.2-0.1-0.2-0.4-0.2-0.5c0-0.2,0.1-0.4,0.2-0.5l0,0l0,0c1.7,0.1,2.7,0.1,3.8,0.1 c1.1,0,2,0,3.2-0.1l0,0l0,0c0.2,0.1,0.2,0.3,0.2,0.5c0,0.1,0,0.4-0.2,0.5l0,0l-0.5,0.1C33,14.4,33,14.7,33,17.7v10.6 c0,2-0.1,4.2-0.7,5.6C31.3,36.4,29.1,38,26.6,38"/>
	<path fill="#FFFFFF" d="M35,13L35,13c-1.3,0.1-2.2,0.1-3.3,0.1c-1.1,0-2.1,0-3.8-0.1l-0.1,0l-0.1,0c-0.3,0.1-0.3,0.5-0.3,0.6 c0,0.3,0.1,0.5,0.2,0.6l0.1,0l0.1,0l0.7,0.1c1.4,0.1,1.7,0.2,1.7,3.4v10.8c0,2.6-0.2,5.9-0.7,7C29.3,35.9,29,36,28.6,36 c-0.3,0-0.7-0.1-1.1-0.2c-0.4-0.1-0.8-0.2-1.1-0.2c-0.8,0-1.3,1-1.3,1.6c0,0.4,0.3,0.9,1.5,0.9c2.5,0,4.8-1.6,5.9-4.3 c0.6-1.4,0.7-3.6,0.7-5.6V17.7c0-3,0.1-3.2,1.5-3.4l0.4-0.1l0.1,0l0.1,0c0.2-0.1,0.2-0.3,0.2-0.6C35.4,13.5,35.4,13.2,35,13L35,13z M35,13.3c0.2,0.1,0.2,0.6,0.1,0.7l-0.4,0.1c-1.7,0.2-1.7,0.6-1.7,3.6v10.6c0,2.2-0.1,4.2-0.7,5.5c-0.9,2.3-3,4.1-5.6,4.1 c-0.3,0-1.2,0-1.2-0.6c0-0.5,0.4-1.3,1-1.3c0.3,0,0.7,0.1,1.1,0.2c0.4,0.1,0.8,0.2,1.2,0.2c0.6,0,0.9-0.3,1.1-0.7 c0.7-1.3,0.7-5.6,0.7-7.1V17.7c0-3.2-0.3-3.5-2-3.6L27.9,14c-0.2-0.1-0.1-0.6,0.1-0.7c1.7,0.1,2.6,0.1,3.8,0.1 C32.9,13.4,33.8,13.3,35,13.3"/>
</g>
<g>
	<path fill="#231F20" d="M39.1,11.1c-1.6,0-2.5,1.2-2.5,2.3c0,1.1,0.8,1.9,1.8,1.9l0,0l0,0c0,0,0.3,0,0.3,0.5c0,0.7-1,1.2-1.5,1.4 L37,17.3l-0.2,0.2c-0.3,0.4-0.3,0.8-0.2,1.2c0.1,0.5,0.4,0.8,0.8,1.1l0.4,0.2l0.4-0.1c2.5-0.8,4.1-2.7,4.1-5 C42.5,12.9,40.9,11.1,39.1,11.1 M39.1,12.2c1.2,0,2.2,1.3,2.2,2.7c0,2-1.5,3.3-3.3,3.9c-0.2-0.1-0.3-0.4-0.2-0.6 c1.1-0.5,2.2-1.3,2.2-2.4c0-1.1-0.9-1.6-1.4-1.6c-0.4,0-0.8-0.3-0.8-0.8C37.8,13,38,12.2,39.1,12.2 M38,19 c-0.2-0.1-0.3-0.2-0.3-0.4c0-0.1,0-0.3,0.1-0.4l0,0l0,0c0.9-0.4,2.1-1.2,2.1-2.3c0-1-0.9-1.4-1.3-1.5c-0.4,0-0.9-0.3-0.9-0.9
		c0-0.6,0.4-1.3,1.5-1.3c1.3,0,2.3,1.3,2.3,2.9c0,2.2-1.8,3.5-3.4,4L38,19L38,19z"/>
	<path fill="#231F20" d="M37.7,19.3c-0.3-0.1-0.5-0.4-0.5-0.7c-0.1-0.3,0-0.5,0.1-0.8l0.1-0.1l0.1-0.1c0.8-0.4,1.8-1,1.8-1.9
		c0-0.8-0.7-1-0.9-1c-0.8-0.1-1.3-0.6-1.3-1.4c0-0.8,0.6-1.7,1.9-1.7c1.5,0,2.8,1.5,2.8,3.3c0,2.4-1.9,3.9-3.7,4.4l-0.2,0.1
		L37.7,19.3z"/>
	<path fill="#FFFFFF" d="M39.2,12c-1.3,0-1.7,0.9-1.7,1.5c0,0.6,0.4,1,1,1.1c0.4,0,1.2,0.4,1.2,1.3c0,1.1-1.1,1.8-2,2.2l-0.1,0 l0,0.1c-0.1,0.2-0.1,0.3-0.1,0.5c0.1,0.2,0.2,0.4,0.4,0.5l0.1,0.1l0.1,0c1.7-0.5,3.5-1.9,3.5-4.1C41.7,13.3,40.5,12,39.2,12 M39.2,12.2c1.2,0,2.2,1.3,2.2,2.7c0,2-1.5,3.3-3.3,3.9c-0.2-0.1-0.3-0.4-0.2-0.6c1.1-0.5,2.2-1.3,2.2-2.4c0-1.1-0.9-1.6-1.4-1.6 c-0.4,0-0.8-0.3-0.8-0.8C37.8,13,38.1,12.2,39.2,12.2"/>
</g>
<g>
	<path fill="#231F20" d="M45.9,19.4c-2.9,0-5,1.8-5,4.4c0,2.3,1.7,3.5,3.4,4.5c1,0.6,1.6,1,1.6,1.6c0,0.2,0,0.7-0.8,0.7
		c-0.8,0-1.5-0.7-1.9-2.1l-0.1-0.2L43,28.1c-0.3-0.3-0.7-0.5-1.2-0.5c-0.5,0-0.9,0.2-1.2,0.6l-0.2,0.3l0,0.4c-0.1,1,0.1,2.6,0.4,3.4 l0.1,0.3l0.2,0.2c0.9,0.7,2.2,1.1,3.8,1.1c3.1,0,5.2-1.8,5.2-4.4c0-2.9-2.3-4.1-3.5-4.8l-0.1-0.1C45.8,24,45,23.6,45,23.1 c0-0.2,0-0.6,0.7-0.6c0.8,0,1.2,0.7,1.4,1.3l0.1,0.2l0.1,0.1c0.3,0.3,0.7,0.5,1.1,0.5c0.6,0,1.1-0.3,1.4-0.8l0.1-0.3v-0.3 c0-0.9-0.2-1.9-0.5-2.7l-0.1-0.2l-0.2-0.2C48.6,19.7,47,19.4,45.9,19.4 M45.9,20.5c1.2,0,2.2,0.3,2.5,0.5c0.3,0.6,0.5,1.5,0.5,2.3 c-0.1,0.1-0.2,0.2-0.4,0.2c-0.1,0-0.2,0-0.3-0.1c-0.5-1.3-1.3-2.1-2.5-2.1c-1.1,0-1.8,0.7-1.8,1.7c0,1.2,1.2,1.8,2.2,2.4 c1.5,0.9,2.9,1.8,2.9,3.8c0,2.2-2,3.2-4.1,3.2c-1.3,0-2.3-0.3-3-0.9c-0.2-0.5-0.4-1.9-0.3-2.9c0.1-0.1,0.2-0.1,0.4-0.1 c0.1,0,0.2,0,0.3,0.1c0.5,1.6,1.4,2.9,3,2.9c1,0,1.9-0.6,1.9-1.8c0-1.3-1.1-2-2.2-2.6c-1.7-0.9-2.8-1.9-2.8-3.5 C42,21.7,43.7,20.5,45.9,20.5 M44.9,32.7c-1.4,0-2.4-0.3-3.1-0.9l0,0l0,0c-0.2-0.6-0.4-2-0.4-2.9l0,0l0,0c0.1-0.1,0.3-0.2,0.5-0.2 c0.2,0,0.3,0.1,0.4,0.2l0,0l0,0c0.4,1.3,1.2,2.8,2.9,2.8c0.8,0,1.8-0.4,1.8-1.7c0-1.2-1-1.9-2.1-2.5c-1.5-0.9-2.9-1.9-2.9-3.6 c0-2,1.6-3.4,4-3.4c1.2,0,2.3,0.3,2.6,0.5l0,0l0,0c0.3,0.7,0.5,1.6,0.5,2.4v0l0,0c-0.1,0.2-0.3,0.3-0.5,0.3c-0.2,0-0.3-0.1-0.4-0.2 l0,0l0,0c-0.5-1.3-1.3-2-2.4-2c-1,0-1.7,0.6-1.7,1.6c0,1,1.1,1.6,2,2.2l0.1,0.1c1.5,0.9,3,1.9,3,4C49.2,31.6,47,32.7,44.9,32.7"/>
	<path fill="#231F20" d="M44.9,33.1c-1.5,0-2.6-0.3-3.4-1l-0.1-0.1l-0.1-0.1c-0.3-0.6-0.4-2.1-0.4-3.1l0-0.2l0.1-0.1
		c0.2-0.2,0.5-0.3,0.8-0.3c0.3,0,0.6,0.1,0.7,0.3l0.1,0.1l0,0.1c0.5,1.7,1.4,2.5,2.5,2.5c0.3,0,1.3-0.1,1.3-1.3c0-1-0.9-1.5-1.9-2.1 c-1.5-0.9-3.1-2-3.1-4c0-2.3,1.8-3.8,4.4-3.8c1.2,0,2.5,0.3,2.9,0.7l0.1,0.1l0,0.1c0.3,0.7,0.5,1.7,0.5,2.5v0.2l-0.1,0.1 c-0.2,0.3-0.5,0.5-0.9,0.5c-0.3,0-0.5-0.1-0.7-0.3l-0.1-0.1l0-0.1c-0.3-0.8-0.9-1.7-2-1.7c-0.8,0-1.3,0.4-1.3,1.2 c0,0.7,0.7,1.2,1.8,1.8l0.1,0.1c1.5,0.9,3.2,2,3.2,4.3C49.5,31.9,47.1,33.1,44.9,33.1"/>
	<path fill="#FFFFFF" d="M46,20.3c-2.5,0-4.2,1.4-4.2,3.5c0,1.8,1.4,2.9,3,3.7c1.1,0.6,2,1.3,2,2.4c0,1.1-0.8,1.5-1.6,1.5
		c-1.3,0-2.2-0.9-2.7-2.7l0-0.1l0,0c-0.1-0.1-0.3-0.2-0.5-0.2c-0.2,0-0.4,0.1-0.6,0.2l-0.1,0.1l0,0.1c-0.1,1,0.1,2.4,0.4,3l0,0.1 l0.1,0c0.8,0.6,1.8,0.9,3.2,0.9c2.1,0,4.4-1.1,4.4-3.5c0-2.2-1.5-3.2-3-4.1l-0.1-0.1c-0.9-0.5-1.9-1.1-1.9-2c0-0.9,0.6-1.5,1.5-1.5 c1.3,0,2,1.2,2.2,1.9l0,0l0,0c0.1,0.1,0.3,0.2,0.5,0.2c0.2,0,0.5-0.1,0.7-0.3l0-0.1v-0.1c0-0.8-0.2-1.7-0.5-2.4l0-0.1l0,0 C48.3,20.5,47.1,20.3,46,20.3 M46,20.5c1.2,0,2.2,0.3,2.5,0.5c0.3,0.6,0.5,1.5,0.5,2.3c-0.1,0.1-0.2,0.2-0.4,0.2 c-0.1,0-0.2,0-0.3-0.1c-0.5-1.3-1.3-2.1-2.5-2.1c-1.1,0-1.8,0.7-1.8,1.7c0,1.2,1.2,1.8,2.2,2.4c1.5,0.9,2.9,1.8,2.9,3.8 c0,2.2-2,3.2-4.1,3.2c-1.3,0-2.3-0.3-3-0.9c-0.2-0.5-0.4-1.9-0.3-2.9c0.1-0.1,0.2-0.1,0.4-0.1c0.1,0,0.2,0,0.3,0.1 c0.5,1.6,1.4,2.9,3,2.9c1,0,1.9-0.6,1.9-1.8c0-1.3-1.1-2-2.2-2.6c-1.7-0.9-2.8-1.9-2.8-3.5C42.1,21.7,43.8,20.5,46,20.5"/>
</g>
</svg>